<mxfile host="app.diagrams.net" modified="2024-04-06T14:43:10.716Z" agent="Mozilla/5.0 (X11; Linux x86_64) AppleWebKit/537.36 (KHTML, like Gecko) Chrome/123.0.0.0 Safari/537.36" etag="iuLQtLU97-w_mt87jlyz" version="24.2.2" type="device">
  <diagram name="Page-1" id="ls8BUcPszcp-NXPqsT4M">
    <mxGraphModel dx="1715" dy="721" grid="0" gridSize="10" guides="1" tooltips="1" connect="1" arrows="1" fold="1" page="0" pageScale="1" pageWidth="827" pageHeight="1169" math="0" shadow="0">
      <root>
        <mxCell id="0" />
        <mxCell id="1" parent="0" />
        <mxCell id="fBTUod78T5G83dmQVt4a-1" value="" style="ellipse;whiteSpace=wrap;html=1;aspect=fixed;" vertex="1" parent="1">
          <mxGeometry x="-250" y="382" width="80" height="80" as="geometry" />
        </mxCell>
        <mxCell id="fBTUod78T5G83dmQVt4a-2" value="" style="endArrow=classic;html=1;rounded=0;entryX=0;entryY=0;entryDx=0;entryDy=0;" edge="1" parent="1" target="fBTUod78T5G83dmQVt4a-1">
          <mxGeometry width="50" height="50" relative="1" as="geometry">
            <mxPoint x="-294" y="328" as="sourcePoint" />
            <mxPoint x="-57" y="489" as="targetPoint" />
          </mxGeometry>
        </mxCell>
        <mxCell id="fBTUod78T5G83dmQVt4a-3" value="" style="ellipse;whiteSpace=wrap;html=1;aspect=fixed;" vertex="1" parent="1">
          <mxGeometry x="-32" y="382" width="80" height="80" as="geometry" />
        </mxCell>
        <mxCell id="fBTUod78T5G83dmQVt4a-4" value="" style="endArrow=classic;html=1;rounded=0;entryX=0;entryY=0.5;entryDx=0;entryDy=0;exitX=1;exitY=0.5;exitDx=0;exitDy=0;" edge="1" parent="1" source="fBTUod78T5G83dmQVt4a-1" target="fBTUod78T5G83dmQVt4a-3">
          <mxGeometry width="50" height="50" relative="1" as="geometry">
            <mxPoint x="-106" y="536" as="sourcePoint" />
            <mxPoint x="-56" y="486" as="targetPoint" />
          </mxGeometry>
        </mxCell>
        <mxCell id="fBTUod78T5G83dmQVt4a-5" value="/ cli ? route(vroute)" style="text;html=1;align=center;verticalAlign=middle;whiteSpace=wrap;rounded=0;" vertex="1" parent="1">
          <mxGeometry x="-156" y="382" width="110" height="30" as="geometry" />
        </mxCell>
        <mxCell id="fBTUod78T5G83dmQVt4a-6" value="" style="ellipse;whiteSpace=wrap;html=1;aspect=fixed;" vertex="1" parent="1">
          <mxGeometry x="216" y="382" width="80" height="80" as="geometry" />
        </mxCell>
        <mxCell id="fBTUod78T5G83dmQVt4a-7" value="" style="endArrow=classic;html=1;rounded=0;entryX=0;entryY=0.5;entryDx=0;entryDy=0;exitX=1;exitY=0.5;exitDx=0;exitDy=0;" edge="1" parent="1" source="fBTUod78T5G83dmQVt4a-3" target="fBTUod78T5G83dmQVt4a-6">
          <mxGeometry width="50" height="50" relative="1" as="geometry">
            <mxPoint x="31" y="497" as="sourcePoint" />
            <mxPoint x="81" y="447" as="targetPoint" />
          </mxGeometry>
        </mxCell>
        <mxCell id="fBTUod78T5G83dmQVt4a-8" value="[vroute == &quot;/profil&quot; &amp;amp;&amp;amp;&lt;div&gt;route.method == &quot;POST&quot;] /&lt;/div&gt;" style="text;html=1;align=center;verticalAlign=middle;whiteSpace=wrap;rounded=0;" vertex="1" parent="1">
          <mxGeometry x="54" y="382" width="156" height="30" as="geometry" />
        </mxCell>
        <mxCell id="fBTUod78T5G83dmQVt4a-9" value="" style="ellipse;whiteSpace=wrap;html=1;aspect=fixed;" vertex="1" parent="1">
          <mxGeometry x="500" y="382" width="80" height="80" as="geometry" />
        </mxCell>
        <mxCell id="fBTUod78T5G83dmQVt4a-10" value="" style="endArrow=classic;html=1;rounded=0;entryX=0;entryY=0.5;entryDx=0;entryDy=0;exitX=1;exitY=0.5;exitDx=0;exitDy=0;" edge="1" parent="1" source="fBTUod78T5G83dmQVt4a-6" target="fBTUod78T5G83dmQVt4a-9">
          <mxGeometry width="50" height="50" relative="1" as="geometry">
            <mxPoint x="160" y="529" as="sourcePoint" />
            <mxPoint x="210" y="479" as="targetPoint" />
          </mxGeometry>
        </mxCell>
        <mxCell id="fBTUod78T5G83dmQVt4a-11" value="/ token = route.header.authorization" style="text;html=1;align=center;verticalAlign=middle;whiteSpace=wrap;rounded=0;" vertex="1" parent="1">
          <mxGeometry x="301" y="390" width="195" height="30" as="geometry" />
        </mxCell>
        <mxCell id="fBTUod78T5G83dmQVt4a-12" value="" style="endArrow=classic;html=1;rounded=0;entryX=0.5;entryY=0;entryDx=0;entryDy=0;exitX=0.5;exitY=0;exitDx=0;exitDy=0;" edge="1" parent="1" source="fBTUod78T5G83dmQVt4a-9" target="fBTUod78T5G83dmQVt4a-1">
          <mxGeometry width="50" height="50" relative="1" as="geometry">
            <mxPoint x="160" y="529" as="sourcePoint" />
            <mxPoint x="210" y="479" as="targetPoint" />
            <Array as="points">
              <mxPoint x="458" y="337" />
              <mxPoint x="369" y="313" />
              <mxPoint x="267" y="298" />
              <mxPoint x="165" y="294" />
              <mxPoint x="63" y="294" />
              <mxPoint x="-37" y="313" />
              <mxPoint x="-130" y="337" />
            </Array>
          </mxGeometry>
        </mxCell>
        <mxCell id="fBTUod78T5G83dmQVt4a-13" value="[token == null] / cli ! send(401, {success: false, message:&amp;nbsp;&#39;Token manquant&#39;})" style="text;html=1;align=center;verticalAlign=middle;whiteSpace=wrap;rounded=0;" vertex="1" parent="1">
          <mxGeometry x="-74" y="267" width="412" height="30" as="geometry" />
        </mxCell>
        <mxCell id="fBTUod78T5G83dmQVt4a-14" value="" style="ellipse;whiteSpace=wrap;html=1;aspect=fixed;" vertex="1" parent="1">
          <mxGeometry x="500" y="522" width="80" height="80" as="geometry" />
        </mxCell>
        <mxCell id="fBTUod78T5G83dmQVt4a-15" value="" style="endArrow=classic;html=1;rounded=0;entryX=0.5;entryY=0;entryDx=0;entryDy=0;exitX=0.5;exitY=1;exitDx=0;exitDy=0;" edge="1" parent="1" source="fBTUod78T5G83dmQVt4a-9" target="fBTUod78T5G83dmQVt4a-14">
          <mxGeometry width="50" height="50" relative="1" as="geometry">
            <mxPoint x="378" y="747" as="sourcePoint" />
            <mxPoint x="428" y="697" as="targetPoint" />
          </mxGeometry>
        </mxCell>
        <mxCell id="fBTUod78T5G83dmQVt4a-16" value="[token != null] / userPayload, error = verify(token)" style="text;html=1;align=center;verticalAlign=middle;whiteSpace=wrap;rounded=0;" vertex="1" parent="1">
          <mxGeometry x="549" y="477" width="272" height="30" as="geometry" />
        </mxCell>
        <mxCell id="fBTUod78T5G83dmQVt4a-18" value="" style="endArrow=classic;html=1;rounded=0;entryX=1;entryY=1;entryDx=0;entryDy=0;exitX=0;exitY=0.5;exitDx=0;exitDy=0;" edge="1" parent="1" source="fBTUod78T5G83dmQVt4a-14" target="fBTUod78T5G83dmQVt4a-1">
          <mxGeometry width="50" height="50" relative="1" as="geometry">
            <mxPoint x="107" y="562" as="sourcePoint" />
            <mxPoint x="210" y="806" as="targetPoint" />
            <Array as="points">
              <mxPoint x="117" y="524" />
            </Array>
          </mxGeometry>
        </mxCell>
        <mxCell id="fBTUod78T5G83dmQVt4a-19" value="[error != null] / cli ! send(401,&amp;nbsp;{success: false, message: error})" style="text;html=1;align=center;verticalAlign=middle;whiteSpace=wrap;rounded=0;" vertex="1" parent="1">
          <mxGeometry x="98" y="492" width="392" height="30" as="geometry" />
        </mxCell>
        <mxCell id="fBTUod78T5G83dmQVt4a-21" value="" style="ellipse;whiteSpace=wrap;html=1;aspect=fixed;" vertex="1" parent="1">
          <mxGeometry x="296" y="650" width="80" height="80" as="geometry" />
        </mxCell>
        <mxCell id="fBTUod78T5G83dmQVt4a-22" value="" style="endArrow=classic;html=1;rounded=0;entryX=1;entryY=0;entryDx=0;entryDy=0;exitX=0;exitY=1;exitDx=0;exitDy=0;" edge="1" parent="1" source="fBTUod78T5G83dmQVt4a-14" target="fBTUod78T5G83dmQVt4a-21">
          <mxGeometry width="50" height="50" relative="1" as="geometry">
            <mxPoint x="185" y="747" as="sourcePoint" />
            <mxPoint x="235" y="697" as="targetPoint" />
          </mxGeometry>
        </mxCell>
        <mxCell id="fBTUod78T5G83dmQVt4a-23" value="[error == null] / error = addTeam(userPayload.pseudo, route.body)" style="text;html=1;align=center;verticalAlign=middle;whiteSpace=wrap;rounded=0;" vertex="1" parent="1">
          <mxGeometry x="406" y="640" width="355" height="30" as="geometry" />
        </mxCell>
        <mxCell id="fBTUod78T5G83dmQVt4a-25" value="" style="endArrow=classic;html=1;rounded=0;entryX=0.5;entryY=1;entryDx=0;entryDy=0;exitX=0;exitY=0.5;exitDx=0;exitDy=0;" edge="1" parent="1" source="fBTUod78T5G83dmQVt4a-21" target="fBTUod78T5G83dmQVt4a-1">
          <mxGeometry width="50" height="50" relative="1" as="geometry">
            <mxPoint x="295" y="747" as="sourcePoint" />
            <mxPoint x="150" y="743" as="targetPoint" />
            <Array as="points">
              <mxPoint x="119" y="648" />
              <mxPoint x="-50" y="587" />
            </Array>
          </mxGeometry>
        </mxCell>
        <mxCell id="fBTUod78T5G83dmQVt4a-26" value="[error == null] / cli !&amp;nbsp;send(201, {success: true, message: &#39;Équipe créée&#39;})" style="text;html=1;align=center;verticalAlign=middle;whiteSpace=wrap;rounded=0;" vertex="1" parent="1">
          <mxGeometry x="3" y="577" width="385" height="30" as="geometry" />
        </mxCell>
        <mxCell id="fBTUod78T5G83dmQVt4a-27" value="" style="ellipse;whiteSpace=wrap;html=1;aspect=fixed;" vertex="1" parent="1">
          <mxGeometry x="-14" y="717" width="80" height="80" as="geometry" />
        </mxCell>
        <mxCell id="fBTUod78T5G83dmQVt4a-28" value="" style="endArrow=classic;html=1;rounded=0;entryX=1;entryY=0.5;entryDx=0;entryDy=0;exitX=0;exitY=1;exitDx=0;exitDy=0;" edge="1" parent="1" source="fBTUod78T5G83dmQVt4a-21" target="fBTUod78T5G83dmQVt4a-27">
          <mxGeometry width="50" height="50" relative="1" as="geometry">
            <mxPoint x="76" y="747" as="sourcePoint" />
            <mxPoint x="126" y="697" as="targetPoint" />
          </mxGeometry>
        </mxCell>
        <mxCell id="fBTUod78T5G83dmQVt4a-29" value="[error != null] /" style="text;html=1;align=center;verticalAlign=middle;whiteSpace=wrap;rounded=0;" vertex="1" parent="1">
          <mxGeometry x="127" y="759" width="89" height="30" as="geometry" />
        </mxCell>
        <mxCell id="fBTUod78T5G83dmQVt4a-31" value="" style="endArrow=classic;html=1;rounded=0;exitX=0;exitY=0.5;exitDx=0;exitDy=0;entryX=0;entryY=1;entryDx=0;entryDy=0;" edge="1" parent="1" source="fBTUod78T5G83dmQVt4a-27" target="fBTUod78T5G83dmQVt4a-1">
          <mxGeometry width="50" height="50" relative="1" as="geometry">
            <mxPoint x="-33" y="747" as="sourcePoint" />
            <mxPoint x="-216" y="593" as="targetPoint" />
            <Array as="points">
              <mxPoint x="-113" y="714" />
              <mxPoint x="-189" y="576" />
            </Array>
          </mxGeometry>
        </mxCell>
        <mxCell id="fBTUod78T5G83dmQVt4a-32" value="[error ==&amp;nbsp;&quot;L&#39;équipe existe déjà&quot;] /&lt;div&gt;cli ! send(409, {success: false, message: error})&lt;/div&gt;" style="text;html=1;align=center;verticalAlign=middle;whiteSpace=wrap;rounded=0;" vertex="1" parent="1">
          <mxGeometry x="-117" y="666" width="267" height="30" as="geometry" />
        </mxCell>
        <mxCell id="fBTUod78T5G83dmQVt4a-33" value="[error !=&amp;nbsp;&quot;L&#39;équipe existe déjà&quot;] /&lt;div&gt;cli ! send(400, {success: false, message: &#39;Équipe invalide&#39;})&lt;/div&gt;" style="text;html=1;align=center;verticalAlign=middle;whiteSpace=wrap;rounded=0;" vertex="1" parent="1">
          <mxGeometry x="-281" y="782" width="320" height="30" as="geometry" />
        </mxCell>
        <mxCell id="fBTUod78T5G83dmQVt4a-36" value="" style="endArrow=classic;html=1;rounded=0;entryX=0;entryY=0.5;entryDx=0;entryDy=0;exitX=0;exitY=0.5;exitDx=0;exitDy=0;" edge="1" parent="1" source="fBTUod78T5G83dmQVt4a-27" target="fBTUod78T5G83dmQVt4a-1">
          <mxGeometry width="50" height="50" relative="1" as="geometry">
            <mxPoint x="-142" y="747" as="sourcePoint" />
            <mxPoint x="-92" y="697" as="targetPoint" />
            <Array as="points">
              <mxPoint x="-96" y="773" />
              <mxPoint x="-177" y="754" />
              <mxPoint x="-212" y="706" />
              <mxPoint x="-252" y="641" />
              <mxPoint x="-269" y="582" />
              <mxPoint x="-267" y="516" />
            </Array>
          </mxGeometry>
        </mxCell>
        <mxCell id="fBTUod78T5G83dmQVt4a-37" value="" style="ellipse;whiteSpace=wrap;html=1;aspect=fixed;" vertex="1" parent="1">
          <mxGeometry x="1065" y="369" width="80" height="80" as="geometry" />
        </mxCell>
        <mxCell id="fBTUod78T5G83dmQVt4a-38" value="" style="endArrow=classic;html=1;rounded=0;entryX=0;entryY=0;entryDx=0;entryDy=0;" edge="1" parent="1" target="fBTUod78T5G83dmQVt4a-37">
          <mxGeometry width="50" height="50" relative="1" as="geometry">
            <mxPoint x="1010" y="295" as="sourcePoint" />
            <mxPoint x="1197" y="543" as="targetPoint" />
          </mxGeometry>
        </mxCell>
        <mxCell id="fBTUod78T5G83dmQVt4a-39" value="" style="ellipse;whiteSpace=wrap;html=1;aspect=fixed;" vertex="1" parent="1">
          <mxGeometry x="1460" y="369" width="80" height="80" as="geometry" />
        </mxCell>
        <mxCell id="fBTUod78T5G83dmQVt4a-40" value="" style="endArrow=classic;html=1;rounded=0;entryX=0;entryY=0.5;entryDx=0;entryDy=0;exitX=1;exitY=0.5;exitDx=0;exitDy=0;" edge="1" parent="1" source="fBTUod78T5G83dmQVt4a-37" target="fBTUod78T5G83dmQVt4a-39">
          <mxGeometry width="50" height="50" relative="1" as="geometry">
            <mxPoint x="1420" y="593" as="sourcePoint" />
            <mxPoint x="1470" y="543" as="targetPoint" />
          </mxGeometry>
        </mxCell>
        <mxCell id="fBTUod78T5G83dmQVt4a-41" value="/ ? response = srv ! route(POST, &quot;/profil&quot;, token, equipe&lt;span style=&quot;background-color: initial;&quot;&gt;)&lt;/span&gt;" style="text;html=1;align=center;verticalAlign=middle;whiteSpace=wrap;rounded=0;" vertex="1" parent="1">
          <mxGeometry x="1151" y="369" width="303" height="30" as="geometry" />
        </mxCell>
        <mxCell id="fBTUod78T5G83dmQVt4a-43" value="" style="ellipse;whiteSpace=wrap;html=1;aspect=fixed;" vertex="1" parent="1">
          <mxGeometry x="1263" y="467" width="80" height="80" as="geometry" />
        </mxCell>
        <mxCell id="fBTUod78T5G83dmQVt4a-44" value="" style="endArrow=classic;html=1;rounded=0;entryX=1;entryY=0;entryDx=0;entryDy=0;exitX=0;exitY=1;exitDx=0;exitDy=0;" edge="1" parent="1" source="fBTUod78T5G83dmQVt4a-39" target="fBTUod78T5G83dmQVt4a-43">
          <mxGeometry width="50" height="50" relative="1" as="geometry">
            <mxPoint x="1277" y="499" as="sourcePoint" />
            <mxPoint x="1327" y="449" as="targetPoint" />
          </mxGeometry>
        </mxCell>
        <mxCell id="fBTUod78T5G83dmQVt4a-45" value="[response.code == 200] / updateProfil()" style="text;html=1;align=center;verticalAlign=middle;whiteSpace=wrap;rounded=0;" vertex="1" parent="1">
          <mxGeometry x="1367" y="467" width="220" height="30" as="geometry" />
        </mxCell>
        <mxCell id="fBTUod78T5G83dmQVt4a-46" value="" style="ellipse;whiteSpace=wrap;html=1;aspect=fixed;" vertex="1" parent="1">
          <mxGeometry x="1268" y="472" width="70" height="70" as="geometry" />
        </mxCell>
        <mxCell id="fBTUod78T5G83dmQVt4a-47" value="" style="ellipse;whiteSpace=wrap;html=1;aspect=fixed;" vertex="1" parent="1">
          <mxGeometry x="1465" y="374" width="70" height="70" as="geometry" />
        </mxCell>
      </root>
    </mxGraphModel>
  </diagram>
</mxfile>
